Coordinates
version=1
nRows=7
nColumns=63
inDegrees=yes

Units are S.I. units (second, meters, Newtons, ...)
If the header above contains a line with 'inDegrees', this indicates whether rotational values are in degrees (yes) or radians (no).

endheader
time	pelvis_tilt	pelvis_list	pelvis_rotation	pelvis_tx	pelvis_ty	pelvis_tz	hip_flexion_r	hip_adduction_r	hip_rotation_r	knee_angle_r	knee_angle_r_beta	ankle_angle_r	subtalar_angle_r	mtp_angle_r	hip_flexion_l	hip_adduction_l	hip_rotation_l	knee_angle_l	knee_angle_l_beta	ankle_angle_l	subtalar_angle_l	mtp_angle_l	L5_S1_Flex_Ext	L5_S1_Lat_Bending	L5_S1_axial_rotation	L4_L5_Flex_Ext	L4_L5_Lat_Bending	L4_L5_axial_rotation	L3_L4_Flex_Ext	L3_L4_Lat_Bending	L3_L4_axial_rotation	L2_L3_Flex_Ext	L2_L3_Lat_Bending	L2_L3_axial_rotation	L1_L2_Flex_Ext	L1_L2_Lat_Bending	L1_L2_axial_rotation	L1_T12_Flex_Ext	L1_T12_Lat_Bending	L1_T12_axial_rotation	Abs_r3	Abs_r2	Abs_r1	Abs_t1	Abs_t2	neck_flexion	neck_bending	neck_rotation	arm_flex_r	arm_add_r	arm_rot_r	elbow_flex_r	pro_sup_r	wrist_flex_r	wrist_dev_r	arm_flex_l	arm_add_l	arm_rot_l	elbow_flex_l	pro_sup_l	wrist_flex_l	wrist_dev_l
      0.00000000	      2.20745160	     -3.54567844	     99.41710680	      0.12562594	      0.60078274	      0.86957455	      8.53574374	     -3.53583380	    -15.40069913	      6.96833135	      0.12162033	     27.13762122	     14.60798616	      0.00000000	     11.59173329	      4.15684710	     13.01645756	      7.62269671	      0.13304116	     20.43058734	    -13.10548838	      0.00000000	      0.40766279	     -0.14362356	     -0.43727372	      0.75707057	     -0.19101933	     -0.46460332	      0.66974920	     -0.34920632	     -0.46460332	      0.46591781	     -0.34920632	     -0.38261450	      0.37855567	     -0.29287716	     -0.35528489	      0.23293852	     -0.22247289	     -0.32795529	      2.91189457	     -1.62469843	     -2.43198523	      0.00000000	      0.00000000	     20.46741241	      1.81398722	     11.92490254	     27.91393675	     -3.27960642	     98.43108193	     24.61407421	     77.81041493	    -11.91759917	     -9.22865794	     18.28352705	     -5.62845045	     69.24640480	     33.11383911	     48.85029855	      8.01107490	      4.30035887
      0.01694915	      2.48093164	     -3.24502778	     99.09744497	      0.12709153	      0.60308839	      0.86977115	      8.26787513	     -3.02554836	    -15.17393597	      6.63176291	      0.11574610	     26.86587490	     14.99900803	      0.00000000	     11.18061001	      3.62848300	     13.12766978	      7.42216713	      0.12954125	     19.73644623	    -13.44224558	      0.00000000	      0.40336698	     -0.13935707	     -0.37275477	      0.74909282	     -0.18534490	     -0.39605194	      0.66269162	     -0.33883277	     -0.39605194	      0.46100812	     -0.33883277	     -0.32616042	      0.37456658	     -0.28417693	     -0.30286325	      0.23048389	     -0.21586410	     -0.27956608	      2.88121002	     -1.57643502	     -2.07315020	      0.00000000	      0.00000000	     19.61412775	      1.87828531	      9.93691083	     28.11422374	     -4.09193309	     98.70665068	     27.95995625	     37.31978835	     -3.06813888	    -10.36692283	     17.80234428	     -6.43323777	     64.36085807	     36.21567860	     33.93808304	      4.81618299	      3.91801628
      0.03389831	      2.64823417	     -3.15994781	     98.70362049	      0.12860539	      0.60460055	      0.87012275	      8.29699062	     -2.69409639	    -14.87373084	      6.48871624	      0.11324946	     26.64921814	     15.28703700	      0.00000000	     11.02329268	      3.23404841	     12.84492653	      7.27041571	      0.12689269	     19.38384164	    -13.26287953	      0.00000000	      0.40131824	     -0.14101676	     -0.35704871	      0.74528811	     -0.18755230	     -0.37936425	      0.65932574	     -0.34286816	     -0.37936425	      0.45866662	     -0.34286816	     -0.31241762	      0.37266412	     -0.28756138	     -0.29010207	      0.22931324	     -0.21843497	     -0.26778653	      2.86657607	     -1.59520983	     -1.98579779	      0.00000000	      0.00000000	     19.30000349	      2.24727707	      9.31679764	     28.32598268	     -4.32930870	     96.29036085	     30.79984249	     24.52495579	      0.22984064	     -8.61116327	     17.02310305	     -7.17469067	     59.83680885	     38.95322670	     30.13318051	      2.36843491	      2.22108964
      0.05084746	      2.77541290	     -3.14541960	     98.34852043	      0.12978912	      0.60565358	      0.87070607	      8.41661000	     -2.45833312	    -14.57217943	      6.43835398	      0.11237048	     26.47718243	     15.51037970	      0.00000000	     10.98722192	      2.95257192	     12.63733876	      7.19730484	      0.12561667	     19.12456320	    -13.26124750	      0.00000000	      0.38666954	     -0.13475010	     -0.36635433	      0.71808399	     -0.17921764	     -0.38925148	      0.63525938	     -0.32763140	     -0.38925148	      0.44192461	     -0.32763140	     -0.32056004	      0.35906133	     -0.27478241	     -0.29766290	      0.22094297	     -0.20872791	     -0.27476575	      2.76194182	     -1.52432010	     -2.03755289	      0.00000000	      0.00000000	     19.27079845	      2.58683075	      9.85359823	     28.44470196	     -4.30141030	     93.70962016	     32.67554309	     22.84855763	      1.76737118	     -7.20894386	     16.38946818	     -7.83643360	     57.39687142	     40.91695183	     29.07857707	      1.14089204	     -0.27280900
      0.06779661	      2.81135071	     -3.19587186	     97.93003688	      0.13086389	      0.60636735	      0.87125483	      8.63835110	     -2.34468526	    -14.24405643	      6.50783999	      0.11358323	     26.28587606	     15.61341496	      0.00000000	     11.02324206	      2.79323590	     12.35489373	      7.17252488	      0.12518417	     18.99707013	    -13.31159972	      0.00000000	      0.36462592	     -0.13108487	     -0.38725630	      0.67714680	     -0.17434287	     -0.41145982	      0.59904393	     -0.31871974	     -0.41145982	      0.41673097	     -0.31871974	     -0.33884926	      0.33859163	     -0.26730826	     -0.31464574	      0.20834725	     -0.20305046	     -0.29044222	      2.60448651	     -1.48285823	     -2.15380336	      0.00000000	      0.00000000	     19.55162808	      2.91128974	     11.09365190	     28.53341955	     -3.97946082	     92.00853705	     33.80902210	     25.18140732	      2.71336640	     -6.57690541	     15.47870634	     -8.54489413	     55.78981697	     42.94625217	     28.55573957	     -0.75619193	     -2.74270805
      0.08474576	      2.80810586	     -3.36933607	     97.61807103	      0.13173904	      0.60661422	      0.87169951	      8.92296927	     -2.30005437	    -13.89718849	      6.54192984	      0.11417822	     26.09179447	     15.58521778	      0.00000000	     11.19223834	      2.71900234	     12.21279252	      7.16370449	      0.12503023	     19.05433145	    -13.26854967	      0.00000000	      0.34982194	     -0.13744384	     -0.33073651	      0.64965432	     -0.18280030	     -0.35140754	      0.57472246	     -0.33418095	     -0.35140754	      0.39981149	     -0.33418095	     -0.28939444	      0.32484465	     -0.28027547	     -0.26872341	      0.19988826	     -0.21290050	     -0.24805238	      2.49874313	     -1.55479218	     -1.83945723	      0.00000000	      0.00000000	     20.15963129	      3.12280494	     11.85340500	     26.86810276	     -4.16988037	     84.22966772	     35.09569039	     37.08314673	      3.13927048	     -4.27437866	     15.20653682	     -9.29357839	     56.54741027	     44.76776487	     28.94047640	     -3.62419777	     -3.84405631
      0.10169492	      2.71530381	     -3.52741649	     97.29091598	      0.13258309	      0.60663344	      0.87217536	      9.21523943	     -2.36753750	    -13.62920134	      6.68580099	      0.11668924	     25.97810846	     15.61495550	      0.00000000	     11.35350624	      2.74825891	     11.99827858	      7.18404911	      0.12538531	     19.28163303	    -13.25592582	      0.00000000	      0.33614421	     -0.15166223	     -0.31601838	      0.62425341	     -0.20171076	     -0.33576953	      0.55225132	     -0.36875154	     -0.33576953	      0.38417921	     -0.36875154	     -0.27651609	      0.31214351	     -0.30926961	     -0.25676494	      0.19207280	     -0.23492479	     -0.23701379	      2.40104445	     -1.71563345	     -1.75759944	      0.00000000	      0.00000000	     20.63932577	      3.27659449	     12.75132925	     25.97660595	     -3.97094958	     80.37163931	     35.86189760	     45.74041502	      3.62054199	     -2.70349032	     14.87406309	     -9.95716730	     56.86860291	     46.39206409	     31.49039720	     -6.92480074	     -2.42591914
